<svg xmlns="http://www.w3.org/2000/svg" width="1024" height="1024" viewBox="0 0 1024 1024">
  <defs>
    <linearGradient id="bg" x1="18%" x2="82%" y1="12%" y2="88%">
      <stop offset="0%" stop-color="#0f172a"/>
      <stop offset="48%" stop-color="#14345f"/>
      <stop offset="100%" stop-color="#0d9488"/>
    </linearGradient>
    <linearGradient id="glass" x1="24%" x2="76%" y1="18%" y2="78%">
      <stop offset="0%" stop-color="#ffffff" stop-opacity="0.34"/>
      <stop offset="100%" stop-color="#ffffff" stop-opacity="0.08"/>
    </linearGradient>
    <linearGradient id="forge" x1="30%" x2="76%" y1="26%" y2="78%">
      <stop offset="0%" stop-color="#f8fafc"/>
      <stop offset="100%" stop-color="#cbd5e1"/>
    </linearGradient>
    <filter id="shadow" x="-20%" y="-20%" width="140%" height="140%">
      <feDropShadow dx="0" dy="28" stdDeviation="36" flood-color="#082032" flood-opacity="0.28"/>
    </filter>
  </defs>

  <rect width="1024" height="1024" rx="232" fill="url(#bg)"/>
  <circle cx="266" cy="236" r="178" fill="#60a5fa" fill-opacity="0.18"/>
  <circle cx="804" cy="788" r="226" fill="#34d399" fill-opacity="0.16"/>
  <rect x="86" y="86" width="852" height="852" rx="198" fill="url(#glass)" stroke="#ffffff" stroke-opacity="0.18" stroke-width="2"/>

  <g filter="url(#shadow)">
    <path d="M286 272h246c116 0 194 74 194 182 0 116-86 196-220 196H286V272Zm120 108v162h94c61 0 104-32 104-82 0-50-39-80-98-80h-100Z" fill="url(#forge)"/>
    <path d="M372 700h136v-84h118c112 0 186-68 186-172 0-110-80-172-210-172H372v428Zm136-320h90c52 0 84 22 84 66 0 42-30 66-84 66h-90V380Z" fill="#e2e8f0" fill-opacity="0.96"/>
  </g>

  <g opacity="0.92">
    <circle cx="768" cy="248" r="22" fill="#f8fafc"/>
    <circle cx="808" cy="208" r="12" fill="#93c5fd"/>
    <circle cx="222" cy="776" r="16" fill="#99f6e4"/>
  </g>
</svg>
